<svg xmlns="http://www.w3.org/2000/svg" viewBox="0 0 100 100">
  <defs>
    <linearGradient id="coralGrad" x1="0%" y1="0%" x2="100%" y2="100%">
      <stop offset="0%" style="stop-color:#4ecdc4"/>
      <stop offset="100%" style="stop-color:#fed766"/>
    </linearGradient>
  </defs>
  <path fill="url(#coralGrad)" d="M50 90c0-15-10-20-10-35 0-10 5-15 5-25 0-5-3-10-5-15 2 5 10 10 10 20s-5 15-5 25c0 15 15 20 15 30h-10zm-15-5c0-10-8-15-8-25 0-8 4-12 4-20 0-4-2-8-4-12 2 4 8 8 8 16s-4 12-4 20c0 10 12 15 12 21h-8zm30 0c0-10 8-15 8-25 0-8-4-12-4-20 0-4 2-8 4-12-2 4-8 8-8 16s4 12 4 20c0 10-12 15-12 21h8z"/>
</svg>
